<?xml version="1.0" ?><svg style="enable-background:new 0 0 100 100;" version="1.1" viewBox="0 0 100 100" xml:space="preserve" xmlns="http://www.w3.org/2000/svg" xmlns:xlink="http://www.w3.org/1999/xlink"><style type="text/css">
	.st0{fill:#FFFFFF;}
	.st1{fill:none;stroke:#000000;stroke-width:3;stroke-linecap:round;stroke-linejoin:round;stroke-miterlimit:10;}
	
		.st2{fill-rule:evenodd;clip-rule:evenodd;fill:none;stroke:#000000;stroke-width:3;stroke-linecap:round;stroke-linejoin:round;stroke-miterlimit:10;}
	.st3{fill-rule:evenodd;clip-rule:evenodd;}
	
		.st4{fill-rule:evenodd;clip-rule:evenodd;fill:none;stroke:#040404;stroke-width:3;stroke-linecap:round;stroke-linejoin:round;stroke-miterlimit:10;}
	.st5{fill-rule:evenodd;clip-rule:evenodd;fill:#040404;}
	.st6{fill:none;}
	.st7{fill:none;stroke:#000000;stroke-width:3;stroke-miterlimit:10;}
	.st8{fill:none;stroke:#FFFFFF;stroke-miterlimit:10;}
	.st9{fill:#040404;}
</style><g id="Layer_1"/><g id="Layer_2"><g><path d="M49.117,41.174L24.76,22.905v25.259L50,67.094l25.24-18.93V22.905L50.883,41.174C50.36,41.567,49.64,41.567,49.117,41.174    z"/><path d="M78.184,85.27h14.11c2.871,0,5.206-2.335,5.206-5.206V35.149L78.184,49.636V85.27z"/><path d="M2.5,80.064c0,2.871,2.335,5.206,5.206,5.206h14.11V49.636L2.5,35.149V80.064z"/><path d="M7.223,15.658C4.266,17.137,2.5,19.994,2.5,23.301v8.168l19.316,14.487V20.698l-5.644-4.232    C13.526,14.481,10.181,14.179,7.223,15.658z"/><path d="M92.777,15.658c-2.958-1.478-6.303-1.178-8.949,0.807l-5.644,4.232v25.259L97.5,31.469v-8.168    C97.5,19.994,95.734,17.137,92.777,15.658z"/></g></g></svg>