<?xml version="1.0" ?><svg style="enable-background:new 0 0 100 100;" version="1.1" viewBox="0 0 100 100" xml:space="preserve" xmlns="http://www.w3.org/2000/svg" xmlns:xlink="http://www.w3.org/1999/xlink"><style type="text/css">
	.st0{fill:#FFFFFF;}
	.st1{fill:none;stroke:#000000;stroke-width:3;stroke-linecap:round;stroke-linejoin:round;stroke-miterlimit:10;}
	
		.st2{fill-rule:evenodd;clip-rule:evenodd;fill:none;stroke:#000000;stroke-width:3;stroke-linecap:round;stroke-linejoin:round;stroke-miterlimit:10;}
	.st3{fill-rule:evenodd;clip-rule:evenodd;}
	
		.st4{fill-rule:evenodd;clip-rule:evenodd;fill:none;stroke:#040404;stroke-width:3;stroke-linecap:round;stroke-linejoin:round;stroke-miterlimit:10;}
	.st5{fill-rule:evenodd;clip-rule:evenodd;fill:#040404;}
	.st6{fill:none;}
	.st7{fill:none;stroke:#000000;stroke-width:3;stroke-miterlimit:10;}
	.st8{fill:none;stroke:#FFFFFF;stroke-miterlimit:10;}
	.st9{fill:#040404;}
</style><g id="Layer_1"/><g id="Layer_2"><g><path class="st3" d="M53.814,7.592C77.02,11.16,87.722,22.194,90.677,45.567c0.274,2.159-0.53,5.407,2.55,5.467    c3.219,0.062,2.443-3.139,2.47-5.3C95.969,23.721,76.776,3.315,54.485,2.563c-1.682,0.242-5.162-1.16-5.379,2.61    C48.962,7.714,51.892,7.296,53.814,7.592z"/><path class="st3" d="M89.405,71.246c-7.788-5.494-17.581-16.008-25.212-4.297c-2.547,3.856-6.112,4.024-9.84,2.333    c-10.277-4.66-18.212-11.839-22.861-22.285c-5.482-12.975,7.939-10.538,7.69-19.584c-0.268-4.925-12.225-21.383-16.947-23.12    c-1.954-0.719-3.9-0.672-5.888-0.004C5.276,8.013,0.69,17.119,5.082,27.901c13.103,32.167,36.162,54.561,67.904,68.229    c1.81,0.778,3.82,1.089,4.838,1.369c7.227,0.073,15.692-6.89,18.137-13.8C98.314,77.052,93.34,74.413,89.405,71.246z"/><path class="st3" d="M58.353,14c-2.232-0.269-5.179-1.321-5.7,1.777c-0.545,3.251,2.739,2.921,4.85,3.393    c14.332,3.203,19.322,8.42,21.682,22.636c0.345,2.073-0.34,5.299,3.182,4.764c2.61-0.398,1.668-3.163,1.886-4.778    C84.369,28.143,72.673,15.72,58.353,14z"/><path class="st3" d="M59.669,25.161c-1.49,0.037-2.952,0.198-3.5,1.79c-0.822,2.38,0.908,2.947,2.669,3.23    c5.879,0.944,8.973,4.411,9.561,10.274c0.159,1.591,1.169,2.881,2.706,2.699c2.13-0.254,2.323-2.15,2.257-3.951    C73.468,32.617,66.023,25.004,59.669,25.161z"/></g></g></svg>